<svg xmlns="http://www.w3.org/2000/svg" width="179" height="35" viewBox="0 0 179 35" fill="none">
<g clip-path="url(#clip0_3186_3183)">
<path d="M166.688 8.11863C170.153 8.3409 173.433 10.3659 173.433 10.3659C167.324 3.95741 157.213 2.14845 152.543 9.62507C152.543 9.62507 148.843 10.44 146.045 13.0825C160.431 14.7371 151.524 25.4427 158.362 34.9999H160.684C159.776 33.3762 159.282 31.4931 159.356 29.4866C159.56 23.9609 164.137 19.4725 169.665 19.3737C173.662 19.2996 177.158 21.4605 178.999 24.6833V21.195C175.144 10.6376 166.688 8.11863 166.688 8.11863Z" fill="white"/>
<path d="M159.981 9.51364C160.055 9.7112 160.104 9.92112 160.104 10.1434C160.104 11.1127 159.32 11.8968 158.35 11.8968C157.38 11.8968 156.596 11.1127 156.596 10.1434C156.596 9.91494 156.645 9.69886 156.719 9.49512C156.25 9.60007 155.83 9.75442 155.496 9.96434C155.484 10.1125 155.484 10.2669 155.509 10.4212C155.731 11.9276 157.177 13.0636 158.739 12.934C160.302 12.7982 161.673 11.6251 161.803 10.3348C161.809 10.2607 161.809 10.1928 161.803 10.1187C161.309 9.86555 160.685 9.65564 159.981 9.51364Z" fill="#0069FF"/>
<path opacity="0.35" d="M146.045 13.0824C149.368 13.4652 151.444 14.3295 152.765 15.552C153.581 15.1445 154.495 14.5148 154.933 13.9591C153.025 12.0514 152.543 9.625 152.543 9.625C152.537 9.625 148.843 10.4338 146.045 13.0824Z" fill="#0069FF"/>
<path opacity="0.35" d="M160.678 35.0001C159.77 33.3764 159.276 31.4934 159.35 29.4868C159.455 26.5851 160.771 23.9673 162.797 22.1275C161.58 16.6759 154.798 11.7923 146.039 13.0827C160.425 14.7373 151.518 25.4429 158.356 35.0001H160.678Z" fill="#0069FF"/>
<path d="M179 32.2032C179 33.7405 177.739 35.0062 176.195 35.0062H160.679C159.771 33.3824 159.277 31.4994 159.351 29.4929C159.555 23.9672 164.132 19.4787 169.66 19.38C173.657 19.3059 177.153 21.4667 178.993 24.6895V32.2032H179ZM146.046 13.0826C148.844 10.4339 152.544 9.62515 152.544 9.62515C157.214 2.14853 167.325 3.95749 173.434 10.366C173.434 10.366 170.154 8.34715 166.689 8.11872C166.689 8.11872 175.145 10.6377 179 21.2013V2.80296C179 1.26566 177.739 0 176.195 0H146.781C145.243 0 143.977 1.25948 143.977 2.80296V32.2032C143.977 33.7405 145.237 35.0062 146.781 35.0062H158.363C151.525 25.4428 160.432 14.7372 146.046 13.0826Z" fill="#2A82FF"/>
<path d="M111.677 18.775C112.499 18.5218 113.159 18.0958 113.66 17.497C114.16 16.9043 114.413 16.1387 114.413 15.2003C114.413 14.0334 113.987 13.1382 113.135 12.5146C112.282 11.891 111.109 11.5762 109.602 11.5762H104.092V23.4239H106.791V19.0343H109.046L112.443 23.4239H115.396L111.677 18.775ZM108.533 18.2131H106.791V12.385H108.521C110.59 12.385 111.628 13.3666 111.628 15.3237C111.621 17.2438 110.59 18.2131 108.533 18.2131Z" fill="white"/>
<path d="M4.07675 23.4239L0 11.5762H2.79195L6.16454 21.8372L9.79037 11.5762H12.2858L15.9796 21.8187L19.2595 11.5762H20.5382L16.5479 23.4239H13.9845L10.2907 13.3296L6.64633 23.4239H4.07675Z" fill="white"/>
<path d="M24.9043 23.4239V11.5762H27.6036V16.8981H33.7125V11.5762H36.4118V23.4239H33.7125V17.7378H27.6036V23.4239H24.9043Z" fill="white"/>
<path d="M42.5645 23.4239V11.5762H45.2638V23.4239H42.5645Z" fill="white"/>
<path d="M53.6524 23.4239V12.4529H49.4336V11.5762H60.589V12.4529H56.3517V23.4239H53.6524Z" fill="white"/>
<path d="M64.7344 23.4239V11.5762H73.6785V12.4529H67.4337V16.8981H73.1535V17.7378H67.4337V22.5472H74.1788V23.4239H64.7344Z" fill="white"/>
<path d="M79.1074 11.5762H84.7778C86.2664 11.5762 87.4153 11.8478 88.2307 12.385C89.046 12.9283 89.4475 13.6383 89.4475 14.5273C89.4475 15.1817 89.2437 15.7312 88.8298 16.1696C88.4222 16.6079 87.9095 16.9537 87.3041 17.2068C88.1874 17.3982 88.8793 17.7439 89.3919 18.2255C89.8984 18.7132 90.1579 19.3245 90.1579 20.0653C90.1579 21.1334 89.7131 21.9607 88.8237 22.5411C87.9342 23.1214 86.5938 23.4178 84.8025 23.4178H79.1074V11.5762ZM84.4937 16.9351C84.8149 16.9351 85.1484 16.8611 85.5067 16.7191C85.8649 16.5709 86.1738 16.3301 86.427 15.9844C86.6803 15.6386 86.8162 15.1879 86.8162 14.6261C86.8162 13.8852 86.532 13.3296 85.9699 12.9468C85.4078 12.5702 84.6604 12.385 83.7339 12.385H81.7944V16.9413H84.4937V16.9351ZM83.7648 22.6213C86.2417 22.6213 87.4833 21.7508 87.4833 20.0159C87.4833 19.238 87.2177 18.6577 86.6865 18.2687C86.1552 17.8798 85.4573 17.6884 84.5863 17.6884H81.8067V22.6275H83.7648V22.6213Z" fill="white"/>
<path d="M95.2344 23.4239V11.5762H97.9337V23.4239H95.2344Z" fill="white"/>
<path d="M131.098 13.1193C129.918 12.0945 128.269 11.582 126.138 11.582H120.152V23.4298H126.138C128.293 23.4298 129.955 22.9235 131.116 21.9172C132.278 20.9108 132.858 19.4538 132.858 17.546C132.864 15.6198 132.271 14.1442 131.098 13.1193ZM125.193 22.5469H122.852V12.4526H125.168C128.405 12.4526 130.023 14.1504 130.023 17.5399C130.023 20.88 128.417 22.5469 125.193 22.5469Z" fill="white"/>
</g>
<defs>
<clipPath id="clip0_3186_3183">
<rect width="179" height="35" fill="white"/>
</clipPath>
</defs>
</svg>