<?xml version="1.0" encoding="UTF-8"?>
<!DOCTYPE svg PUBLIC "-//W3C//DTD SVG 1.1//EN" "http://www.w3.org/Graphics/SVG/1.1/DTD/svg11.dtd">
<svg xmlns="http://www.w3.org/2000/svg" version="1.1" width="37px" height="39px" style="shape-rendering:geometricPrecision; text-rendering:geometricPrecision; image-rendering:optimizeQuality; fill-rule:evenodd; clip-rule:evenodd" xmlns:xlink="http://www.w3.org/1999/xlink">
<g><path style="opacity:1" fill="#282c34" d="M -0.5,-0.5 C 11.8333,-0.5 24.1667,-0.5 36.5,-0.5C 36.5,12.5 36.5,25.5 36.5,38.5C 24.1667,38.5 11.8333,38.5 -0.5,38.5C -0.5,37.5 -0.5,36.5 -0.5,35.5C 4.07037,36.441 8.73704,36.7744 13.5,36.5C 14.1667,36.5 14.8333,36.5 15.5,36.5C 21.5092,36.6662 27.5092,36.4995 33.5,36C 34.4558,32.6064 34.7892,29.1064 34.5,25.5C 34.5,24.1667 34.5,22.8333 34.5,21.5C 34.811,14.9102 34.4777,8.41018 33.5,2C 22.0905,1.19013 10.7572,1.3568 -0.5,2.5C -0.5,1.5 -0.5,0.5 -0.5,-0.5 Z"/></g>
<g><path style="opacity:1" fill="#2d81fb" d="M 34.5,21.5 C 32.114,17.6033 29.114,14.1033 25.5,11C 26.3452,9.44185 25.6785,8.44185 23.5,8C 17.3997,5.1199 12.3997,6.28657 8.5,11.5C 0.537855,13.064 0.537855,14.8974 8.5,17C 9.12576,17.7504 9.62576,18.5838 10,19.5C 9.99088,25.4538 11.1576,31.1205 13.5,36.5C 8.73704,36.7744 4.07037,36.441 -0.5,35.5C -0.5,24.5 -0.5,13.5 -0.5,2.5C 10.7572,1.3568 22.0905,1.19013 33.5,2C 34.4777,8.41018 34.811,14.9102 34.5,21.5 Z"/></g>
<g><path style="opacity:1" fill="#f4f7fb" d="M 34.5,21.5 C 34.5,22.8333 34.5,24.1667 34.5,25.5C 30.2092,20.5083 25.2092,19.5083 19.5,22.5C 17.0411,20.2208 14.3744,18.0542 11.5,16C 9.85883,14.871 8.85883,13.371 8.5,11.5C 12.3997,6.28657 17.3997,5.1199 23.5,8C 25.6785,8.44185 26.3452,9.44185 25.5,11C 29.114,14.1033 32.114,17.6033 34.5,21.5 Z"/></g>
<g><path style="opacity:1" fill="#4b8cff" d="M 15.5,11.5 C 17.8418,11.7748 17.8418,12.6081 15.5,14C 14.5,14.6667 13.5,14.6667 12.5,14C 13.9423,13.6232 14.9423,12.7899 15.5,11.5 Z"/></g>
<g><path style="opacity:1" fill="#9fc4fa" d="M 8.5,11.5 C 8.85883,13.371 9.85883,14.871 11.5,16C 14.3744,18.0542 17.0411,20.2208 19.5,22.5C 14.7771,26.1394 13.4438,30.8061 15.5,36.5C 14.8333,36.5 14.1667,36.5 13.5,36.5C 11.1576,31.1205 9.99088,25.4538 10,19.5C 9.62576,18.5838 9.12576,17.7504 8.5,17C 0.537855,14.8974 0.537855,13.064 8.5,11.5 Z"/></g>
<g><path style="opacity:1" fill="#2e81fa" d="M 34.5,25.5 C 34.7892,29.1064 34.4558,32.6064 33.5,36C 27.5092,36.4995 21.5092,36.6662 15.5,36.5C 13.4438,30.8061 14.7771,26.1394 19.5,22.5C 25.2092,19.5083 30.2092,20.5083 34.5,25.5 Z"/></g>
</svg>
